# xmcd
#
# Track frame offsets:
#	150
#	14642
#	27090
#	41280
#	55638
#	69909
#	86003
#	99625
#	116332
#	133510
#	150006
#	165878
#	179406
#	193087
#	204972
#	218543
#	232832
#	246078
#	259397
#	271573
#	283840
#	297492
#	310475
#	324895
#	337515
# Disc length: 4697 seconds
# Revision: 1
# Processed by: cddbd v1.5.1PL0 Copyright (c) Steve Scherf et al.
#
# Submitted via: libkcddb 0.10
#
DISCID=45125719
DTITLE=John Lee Hooker - The boogie man
DYEAR=1900
DGENRE=
TTITLE0=Sally Mae
TTITLE1=War is over
TTITLE2=Boogie chillen
TTITLE3=Stomp boogie
TTITLE4=Who's been jiving you
TTITLE5=Black man blues
TTITLE6=Poor joe
TTITLE7=Helpless blues
TTITLE8=Goin' mad blues
TTITLE9=Low down mid-nite boogie
TTITLE10=Landing blues
TTITLE11=Drifting from door to door
TTITLE12=Hobo blues
TTITLE13=Howlin' wolf
TTITLE14=Crawling kingsnake
TTITLE15=Whistlin' and moanin' blues
TTITLE16=Hoogie boogie
TTITLE17=Momma poppa boogie
TTITLE18=Miss Eloise
TTITLE19=Burnin' Hell
TTITLE20=Black cat blues
TTITLE21=Nightmare blues
TTITLE22=Don't go baby
TTITLE23=Morning blues
TTITLE24=Do the boogie
EXTD=
EXTT0=
EXTT1=
EXTT2=
EXTT3=
EXTT4=
EXTT5=
EXTT6=
EXTT7=
EXTT8=
EXTT9=
EXTT10=
EXTT11=
EXTT12=
EXTT13=
EXTT14=
EXTT15=
EXTT16=
EXTT17=
EXTT18=
EXTT19=
EXTT20=
EXTT21=
EXTT22=
EXTT23=
EXTT24=
PLAYORDER=
